<svg width="131" height="32" viewBox="0 0 131 32" fill="none" xmlns="http://www.w3.org/2000/svg">
<path d="M15.7929 4.59521V4.59626C15.776 4.62534 12.2955 10.6292 7.95067 17.9595C3.59532 25.3077 0 31.1906 0 31.1906L12.3315 31.1365L12.3323 31.1364L12.3297 31.1459C18.3172 31.03 23.7182 27.0934 25.3119 21.1453C25.8102 19.286 25.8853 17.4143 25.5964 15.6255C24.8043 10.3582 20.9149 6.07448 15.7929 4.59521Z" fill="black"/>
<path d="M22.6074 0.809326V0.81037C22.5905 0.839449 19.1099 6.8433 14.7651 14.1736C10.4098 21.5218 6.81445 27.4047 6.81445 27.4047L19.1459 27.3506L19.1467 27.3505L19.1442 27.36C25.1317 27.2441 30.5326 23.3075 32.1264 17.3594C32.6246 15.5001 32.6998 13.6284 32.4108 11.8396C31.6187 6.57236 27.7294 2.28859 22.6074 0.809326Z" fill="#10F2C5"/>
<path d="M48.6476 25H42.1851V6.76965H48.701C50.5347 6.76965 52.1132 7.13461 53.4366 7.86454C54.76 8.58853 55.7777 9.63001 56.4898 10.989C57.2079 12.3479 57.5669 13.974 57.5669 15.867C57.5669 17.766 57.2079 19.398 56.4898 20.7629C55.7777 22.1278 54.754 23.1752 53.4188 23.9051C52.0895 24.635 50.4991 25 48.6476 25ZM46.0394 21.6975H48.4874C49.6267 21.6975 50.5851 21.4958 51.3625 21.0922C52.1459 20.6828 52.7334 20.0507 53.1251 19.1962C53.5227 18.3357 53.7215 17.226 53.7215 15.867C53.7215 14.5199 53.5227 13.4191 53.1251 12.5645C52.7334 11.71 52.1489 11.081 51.3714 10.6774C50.594 10.2739 49.6356 10.0721 48.4963 10.0721H46.0394V21.6975ZM65.3891 25.2225C64.3506 25.2225 63.41 24.9555 62.5674 24.4214C61.7306 23.8814 61.066 23.0891 60.5734 22.0447C60.0868 20.9943 59.8435 19.7066 59.8435 18.1814C59.8435 16.6147 60.0957 15.3122 60.6001 14.2736C61.1045 13.2292 61.7751 12.4488 62.6119 11.9325C63.4545 11.4103 64.3773 11.1492 65.3802 11.1492C66.1458 11.1492 66.7837 11.2798 67.2941 11.5409C67.8104 11.796 68.2258 12.1165 68.5403 12.5022C68.8607 12.882 69.1041 13.2559 69.2702 13.6238H69.3859V6.76965H73.1691V25H69.4304V22.8102H69.2702C69.0922 23.19 68.84 23.5669 68.5136 23.9407C68.1931 24.3086 67.7748 24.6143 67.2585 24.8576C66.7481 25.1009 66.125 25.2225 65.3891 25.2225ZM66.5909 22.2049C67.2021 22.2049 67.7184 22.0388 68.1397 21.7064C68.567 21.3682 68.8934 20.8964 69.1189 20.2911C69.3503 19.6858 69.4661 18.9766 69.4661 18.1636C69.4661 17.3506 69.3533 16.6444 69.1278 16.0451C68.9023 15.4457 68.5759 14.9828 68.1486 14.6564C67.7214 14.33 67.2021 14.1668 66.5909 14.1668C65.9677 14.1668 65.4426 14.336 65.0153 14.6742C64.588 15.0125 64.2646 15.4813 64.045 16.0807C63.8254 16.68 63.7157 17.3743 63.7157 18.1636C63.7157 18.9588 63.8254 19.662 64.045 20.2733C64.2705 20.8786 64.5939 21.3533 65.0153 21.6975C65.4426 22.0358 65.9677 22.2049 66.5909 22.2049ZM87.663 15.2261L84.1914 15.4397C84.1321 15.143 84.0045 14.876 83.8087 14.6386C83.6128 14.3953 83.3547 14.2024 83.0342 14.06C82.7197 13.9116 82.3429 13.8375 81.9037 13.8375C81.3162 13.8375 80.8207 13.9621 80.4172 14.2113C80.0136 14.4546 79.8119 14.781 79.8119 15.1905C79.8119 15.5169 79.9424 15.7928 80.2035 16.0183C80.4646 16.2439 80.9127 16.4248 81.5477 16.5613L84.0223 17.0598C85.3516 17.3328 86.3426 17.7719 86.9954 18.3773C87.6482 18.9826 87.9746 19.7778 87.9746 20.7629C87.9746 21.659 87.7105 22.4453 87.1823 23.1218C86.6601 23.7983 85.9421 24.3265 85.0282 24.7062C84.1202 25.0801 83.0728 25.267 81.8859 25.267C80.0759 25.267 78.6339 24.8902 77.5598 24.1366C76.4916 23.377 75.8655 22.3444 75.6816 21.0388L79.4113 20.843C79.5241 21.3949 79.797 21.8162 80.2302 22.107C80.6635 22.3918 81.2183 22.5343 81.8948 22.5343C82.5595 22.5343 83.0936 22.4067 83.4971 22.1515C83.9066 21.8904 84.1143 21.5551 84.1202 21.1456C84.1143 20.8014 83.9689 20.5196 83.684 20.3C83.3992 20.0745 82.96 19.9024 82.3666 19.7837L79.9988 19.3119C78.6636 19.0449 77.6696 18.582 77.0168 17.9233C76.3699 17.2646 76.0465 16.4248 76.0465 15.4041C76.0465 14.5259 76.2839 13.7692 76.7586 13.1342C77.2393 12.4993 77.9129 12.0097 78.7793 11.6655C79.6516 11.3213 80.6724 11.1492 81.8414 11.1492C83.5683 11.1492 84.9273 11.5142 85.9183 12.2441C86.9153 12.974 87.4969 13.968 87.663 15.2261ZM96.5223 30.4121C95.2939 30.4121 94.2405 30.243 93.3622 29.9047C92.4899 29.5724 91.7956 29.1184 91.2793 28.5428C90.763 27.9672 90.4277 27.3203 90.2734 26.6023L93.7806 26.1305C93.8874 26.4035 94.0566 26.6587 94.288 26.896C94.5194 27.1334 94.8251 27.3233 95.2049 27.4657C95.5906 27.6141 96.0594 27.6883 96.6113 27.6883C97.4362 27.6883 98.1157 27.4865 98.6498 27.083C99.1898 26.6854 99.4598 26.0177 99.4598 25.0801V22.5788H99.2996C99.1334 22.9586 98.8842 23.3176 98.5518 23.6559C98.2195 23.9941 97.7922 24.2701 97.27 24.4837C96.7478 24.6973 96.1247 24.8042 95.4007 24.8042C94.374 24.8042 93.4394 24.5668 92.5967 24.092C91.76 23.6114 91.0923 22.8785 90.5939 21.8934C90.1013 20.9023 89.855 19.6502 89.855 18.1369C89.855 16.588 90.1072 15.2944 90.6117 14.2558C91.1161 13.2173 91.7867 12.4399 92.6234 11.9236C93.4661 11.4073 94.3889 11.1492 95.3918 11.1492C96.1573 11.1492 96.7982 11.2798 97.3145 11.5409C97.8308 11.796 98.2462 12.1165 98.5607 12.5022C98.8812 12.882 99.1275 13.2559 99.2996 13.6238H99.442V11.3272H103.207V25.1335C103.207 26.2967 102.922 27.2699 102.353 28.0532C101.783 28.8366 100.994 29.4241 99.985 29.8157C98.9821 30.2133 97.8278 30.4121 96.5223 30.4121ZM96.6024 21.9557C97.2136 21.9557 97.7299 21.8043 98.1513 21.5017C98.5785 21.1931 98.9049 20.754 99.1304 20.1843C99.3619 19.6086 99.4776 18.9202 99.4776 18.1191C99.4776 17.318 99.3648 16.6237 99.1393 16.0361C98.9138 15.4427 98.5874 14.9828 98.1602 14.6564C97.7329 14.33 97.2136 14.1668 96.6024 14.1668C95.9793 14.1668 95.4541 14.336 95.0268 14.6742C94.5996 15.0065 94.2761 15.4694 94.0566 16.0629C93.837 16.6563 93.7272 17.3417 93.7272 18.1191C93.7272 18.9084 93.837 19.5908 94.0566 20.1665C94.2821 20.7362 94.6055 21.1783 95.0268 21.4928C95.4541 21.8014 95.9793 21.9557 96.6024 21.9557ZM110.017 17.0954V25H106.225V11.3272H109.839V13.7396H109.999C110.302 12.9443 110.809 12.3153 111.521 11.8524C112.234 11.3836 113.097 11.1492 114.112 11.1492C115.061 11.1492 115.889 11.3569 116.595 11.7723C117.301 12.1877 117.85 12.7812 118.242 13.5526C118.634 14.3182 118.83 15.232 118.83 16.2943V25H115.037V16.9708C115.043 16.1341 114.83 15.4813 114.397 15.0125C113.963 14.5377 113.367 14.3003 112.607 14.3003C112.097 14.3003 111.646 14.4101 111.254 14.6297C110.869 14.8493 110.566 15.1697 110.346 15.5911C110.133 16.0065 110.023 16.5079 110.017 17.0954ZM121.818 25V11.3272H125.495V13.7128H125.637C125.886 12.8642 126.305 12.2233 126.892 11.7901C127.48 11.351 128.156 11.1314 128.922 11.1314C129.112 11.1314 129.316 11.1433 129.536 11.167C129.755 11.1907 129.948 11.2234 130.114 11.2649V14.6297C129.936 14.5763 129.69 14.5288 129.376 14.4873C129.061 14.4457 128.773 14.425 128.512 14.425C127.954 14.425 127.456 14.5466 127.017 14.7899C126.584 15.0273 126.239 15.3596 125.984 15.7869C125.735 16.2142 125.61 16.7067 125.61 17.2646V25H121.818Z" fill="black"/>
</svg>
